<svg width="40" height="41" viewBox="0 0 40 41" fill="none" xmlns="http://www.w3.org/2000/svg">
<g id="logos:google-gmail" clip-path="url(#clip0_4_484)">
<path id="Vector" d="M9.09239 40.3031V19.8036L4.30006 13.9875L0.00265503 10.7599V36.6855C0.00265503 38.6871 1.22515 40.3031 2.72964 40.3031H9.09239Z" fill="#4285F4"/>
<path id="Vector_2" d="M30.9076 40.3031H37.2704C38.7794 40.3031 39.9974 38.6812 39.9974 36.6855V10.7601L35.1299 14.4569L30.9076 19.8037V40.3031Z" fill="#34A853"/>
<path id="Vector_3" d="M9.09238 19.8036L8.44028 11.7939L9.09238 4.12775L20 14.9804L30.9076 4.12775L31.6371 11.38L30.9076 19.8036L20 30.6562L9.09238 19.8036Z" fill="#EA4335"/>
<path id="Vector_4" d="M30.9076 4.12777V19.8036L39.9974 10.7599V5.93647C39.9974 1.4629 36.1479 -1.08736 33.4529 1.59554L30.9076 4.12777Z" fill="#FBBC04"/>
<path id="Vector_5" d="M0.00265503 10.7599L4.1832 14.9195L9.09239 19.8037V4.1278L6.5471 1.59557C3.84746 -1.08753 0.00265503 1.46293 0.00265503 5.9363V10.7599Z" fill="#C5221F"/>
</g>
<defs>
<clipPath id="clip0_4_484">
<rect width="40" height="40" fill="white" transform="translate(0 0.5)"/>
</clipPath>
</defs>
</svg>
