<svg width="41" height="41" viewBox="0 0 41 41" fill="none" xmlns="http://www.w3.org/2000/svg">
<g id="devicon:linkedin">
<path id="Vector" d="M36.5833 1.43752H4.08331C3.34591 1.43002 2.63565 1.71535 2.10837 2.23091C1.5811 2.74646 1.27988 3.45014 1.27081 4.18752V36.8188C1.28152 37.5551 1.58346 38.2571 2.11055 38.7714C2.63765 39.2856 3.34698 39.57 4.08331 39.5625H36.5833C37.3208 39.5684 38.0305 39.2821 38.5575 38.7662C39.0846 38.2503 39.3859 37.5468 39.3958 36.8094V4.17815C39.3827 3.44292 39.0799 2.74261 38.5532 2.22942C38.0266 1.71622 37.3186 1.43164 36.5833 1.43752Z" fill="#0076B2"/>
<path id="Vector_2" d="M6.91454 15.7281H12.5739V33.9375H6.91454V15.7281ZM9.74579 6.66565C10.3949 6.66565 11.0294 6.85817 11.5691 7.21886C12.1087 7.57954 12.5293 8.09219 12.7776 8.69194C13.0258 9.29169 13.0906 9.9516 12.9638 10.5882C12.8369 11.2248 12.5241 11.8094 12.0649 12.2682C11.6057 12.727 11.0207 13.0392 10.384 13.1655C9.74731 13.2917 9.08746 13.2263 8.48794 12.9775C7.88843 12.7287 7.37618 12.3076 7.01601 11.7676C6.65584 11.2276 6.46392 10.5929 6.46454 9.94377C6.46537 9.07407 6.81144 8.24028 7.4267 7.6256C8.04196 7.01092 8.87609 6.66565 9.74579 6.66565ZM16.1239 15.7281H21.5489V18.2281H21.6239C22.3802 16.7969 24.2239 15.2875 26.977 15.2875C32.7083 15.275 33.7708 19.0469 33.7708 23.9375V33.9375H28.1114V25.0781C28.1114 22.9688 28.0739 20.2531 25.1708 20.2531C22.2677 20.2531 21.7739 22.5531 21.7739 24.9406V33.9375H16.1239V15.7281Z" fill="white"/>
</g>
</svg>
